<?xml version="1.0" standalone="no"?>
<!DOCTYPE svg PUBLIC "-//W3C//DTD SVG 20010904//EN"
 "http://www.w3.org/TR/2001/REC-SVG-20010904/DTD/svg10.dtd">
<svg version="1.0" xmlns="http://www.w3.org/2000/svg"
 width="875.000000pt" height="757.000000pt" viewBox="0 0 875.000000 757.000000"
 preserveAspectRatio="xMidYMid meet">
<metadata>
Created by potrace 1.16, written by Peter Selinger 2001-2019
</metadata>
<g transform="translate(0.000000,757.000000) scale(0.100000,-0.100000)"
fill="#000000" stroke="none">
<path d="M4390 5509 c-136 -13 -202 -27 -440 -92 -244 -67 -275 -86 -61 -37
178 40 340 68 431 73 41 3 63 3 48 0 -33 -5 -33 -5 -12 -46 47 -92 118 -161
192 -187 24 -9 24 -7 -8 17 -56 43 -133 125 -157 166 l-22 37 88 0 c175 0 422
13 409 22 -7 5 -112 6 -233 4 -171 -4 -205 -3 -150 5 39 6 138 11 220 11 220
2 295 -19 714 -208 l153 -69 -124 -6 c-67 -4 -260 -10 -428 -14 l-305 -7 -365
38 c-572 59 -888 54 -1190 -20 -121 -30 -97 -31 225 -6 293 23 348 22 775 -18
265 -24 323 -26 835 -26 381 -1 608 3 740 13 253 19 520 20 615 2 41 -7 128
-33 193 -57 65 -24 164 -55 220 -69 56 -13 138 -43 182 -65 48 -23 70 -31 55
-19 -37 31 -146 84 -215 104 -33 10 -100 37 -150 61 -49 24 -133 56 -185 71
l-95 28 -360 1 -360 2 -175 82 c-191 90 -377 166 -484 199 -61 19 -90 21 -280
20 -116 -1 -249 -5 -296 -10z"/>
<path d="M2730 5280 c-107 -4 -224 -9 -260 -10 l-65 -2 51 -8 c29 -4 150 -13
270 -20 l219 -12 65 30 65 31 -75 -2 c-41 0 -163 -4 -270 -7z"/>
<path d="M6100 5116 c-92 -26 -167 -75 -212 -139 l-22 -32 37 33 c165 142 434
161 567 39 l35 -32 -35 38 c-44 48 -84 73 -146 92 -58 18 -162 18 -224 1z"/>
<path d="M2182 5105 c-194 -7 -355 -14 -357 -17 -2 -2 207 -17 466 -32 258
-16 472 -27 475 -24 3 3 0 24 -6 47 l-11 41 -107 -2 c-59 0 -266 -7 -460 -13z"/>
<path d="M2946 5035 c4 -16 21 -63 40 -102 59 -131 172 -224 289 -239 l50 -6
-70 36 c-135 69 -214 147 -284 281 -21 40 -29 50 -25 30z"/>
<path d="M6957 4849 c-64 -51 -150 -101 -267 -156 l-95 -44 58 5 c72 8 163 44
227 91 46 34 137 132 129 139 -2 2 -26 -14 -52 -35z"/>
<path d="M2415 4869 c-203 -5 -397 -10 -430 -11 -58 -3 344 -23 690 -35 l170
-6 23 32 23 31 -53 -2 c-29 0 -219 -5 -423 -9z"/>
<path d="M6995 4229 c-39 -34 -72 -63 -74 -65 -2 -2 27 -4 65 -4 67 0 72 2
174 65 l105 65 -100 0 -101 0 -69 -61z"/>
<path d="M3170 4094 c-76 -33 -120 -102 -120 -186 0 -67 30 -121 88 -163 38
-26 52 -30 111 -30 59 0 73 4 111 30 48 33 90 108 90 161 0 144 -149 245 -280
188z"/>
<path d="M1655 4090 c-164 -22 -315 -132 -394 -287 -47 -93 -51 -140 -51 -590
l0 -423 160 0 160 0 0 420 c0 403 1 422 20 461 42 81 140 123 231 99 56 -15
123 -80 138 -135 7 -26 11 -179 11 -442 l0 -403 160 0 160 0 0 417 c0 405 1
418 21 461 56 116 208 145 306 59 73 -64 73 -62 73 -524 l0 -413 161 0 161 0
-4 438 c-4 416 -5 440 -26 503 -40 119 -119 219 -230 290 -176 111 -443 90
-593 -48 l-27 -25 -61 46 c-86 63 -152 86 -286 100 -16 2 -57 0 -90 -4z"/>
<path d="M6840 4059 c-304 -45 -530 -314 -530 -629 0 -281 175 -523 443 -613
57 -19 90 -21 420 -24 l357 -4 0 160 0 160 -342 3 -343 3 -49 25 c-59 30 -110
86 -144 159 -35 76 -35 186 1 263 32 71 83 127 144 158 45 24 59 25 239 28
214 4 212 4 221 -67 4 -28 1 -48 -11 -66 l-16 -25 -225 0 -225 0 0 -160 0
-160 232 0 c180 0 244 4 287 16 119 33 226 139 256 254 18 69 19 189 1 255
-36 136 -149 237 -296 265 -62 12 -340 11 -420 -1z"/>
<path d="M3640 3901 l0 -161 269 0 269 0 30 -25 c16 -13 38 -47 50 -75 l21
-50 -172 0 c-209 0 -279 -10 -360 -48 -197 -93 -274 -333 -173 -537 43 -86 92
-133 186 -179 l65 -31 268 -3 267 -4 0 161 0 161 -239 0 c-271 0 -271 0 -271
74 0 82 -5 81 283 84 l255 3 40 -113 c22 -62 59 -170 83 -240 l44 -128 169 0
c156 0 168 1 161 18 -4 9 -79 221 -166 471 -88 250 -176 485 -195 521 -56 107
-151 191 -262 234 -52 19 -79 21 -339 24 l-283 3 0 -160z"/>
<path d="M4990 3424 l0 -635 458 3 457 3 67 32 c89 42 151 101 191 182 30 62
32 72 32 176 0 103 -2 114 -32 176 l-31 67 19 31 c58 96 65 268 15 378 -30 67
-105 147 -167 178 -80 42 -116 45 -571 45 l-438 0 0 -636z m879 302 c21 -26
25 -83 7 -111 l-16 -25 -175 0 -175 0 0 -160 0 -160 168 0 c150 0 171 -2 185
-18 34 -37 30 -110 -7 -134 -6 -4 -131 -8 -278 -8 l-268 0 0 315 0 315 274 0
c223 0 276 -3 285 -14z"/>
<path d="M3090 3215 l0 -425 160 0 160 0 0 425 0 425 -160 0 -160 0 0 -425z"/>
<path d="M3104 2450 c-46 -18 -54 -46 -54 -183 0 -122 1 -129 25 -152 23 -24
28 -25 170 -25 l145 0 0 30 0 30 -128 0 c-86 0 -132 4 -140 12 -13 13 -17 183
-6 212 5 14 27 16 141 16 l134 0 -3 33 -3 32 -130 2 c-71 1 -140 -2 -151 -7z"/>
<path d="M4275 2452 c-49 -16 -87 -49 -110 -96 -22 -44 -25 -63 -25 -158 l0
-108 35 0 c35 0 35 0 35 45 l0 46 118 -3 117 -3 3 -42 c3 -40 5 -43 33 -43
l29 0 0 179 c0 154 -2 180 -16 185 -20 8 -193 6 -219 -2z m175 -137 l0 -75
-120 0 -120 0 0 29 c0 85 48 121 163 121 l77 0 0 -75z"/>
<path d="M5351 2441 c-7 -12 -11 -87 -11 -185 l0 -166 35 0 35 0 0 150 0 150
120 0 120 0 0 -38 c0 -69 -22 -80 -157 -81 -52 -1 -53 -2 -53 -31 0 -23 5 -30
19 -30 11 0 52 -27 93 -60 68 -56 77 -60 123 -60 l50 0 -55 50 c-30 27 -58 49
-62 50 -18 1 -6 20 12 20 11 0 37 15 57 34 36 33 38 37 38 100 0 55 -4 69 -23
88 -21 22 -32 23 -177 26 -145 3 -154 2 -164 -17z"/>
</g>
</svg>
